<svg xmlns="http://www.w3.org/2000/svg" width="1800" height="2200" viewBox="0 0 1800 2200" role="img" aria-labelledby="title desc">
  <title id="title">DFW Gateway Mockup Review Board v1.0.0</title>
  <desc id="desc">Compact schematic review board for the DFW public information gateway, partner surfaces, fan hub modules, and inventory controls.</desc>
  <rect width="1800" height="2200" fill="#07111f"/>
  <text x="80" y="90" font-family="Arial" font-size="48" font-weight="800" fill="#ffffff">DFW Matchday Information + Planning Hub</text>
  <text x="80" y="135" font-family="Arial" font-size="22" fill="#cbd5e1">Compact schematic board · review surface</text>
  <g font-family="Arial">
    <rect x="80" y="200" width="500" height="250" rx="22" fill="#f8fafc" stroke="#cbd5e1" stroke-width="2"/>
    <text x="115" y="260" font-size="28" font-weight="800" fill="#0f172a">1. Gateway Homepage</text>
    <rect x="115" y="305" width="170" height="48" rx="14" fill="#2563eb"/>
    <text x="142" y="337" font-size="18" font-weight="800" fill="#ffffff">Start Inquiry</text>
    <rect x="310" y="305" width="210" height="48" rx="14" fill="#ffffff" stroke="#cbd5e1" stroke-width="2"/>
    <text x="338" y="337" font-size="18" fill="#475569">Open Guide</text>

    <rect x="650" y="200" width="500" height="250" rx="22" fill="#f8fafc" stroke="#cbd5e1" stroke-width="2"/>
    <text x="685" y="260" font-size="28" font-weight="800" fill="#0f172a">2. Sponsor Rail</text>
    <rect x="685" y="305" width="190" height="70" rx="14" fill="#fef3c7" stroke="#f59e0b" stroke-width="2"/>
    <text x="715" y="348" font-size="18" fill="#475569">Partner Slot</text>
    <rect x="900" y="305" width="190" height="70" rx="14" fill="#fef3c7" stroke="#f59e0b" stroke-width="2"/>
    <text x="930" y="348" font-size="18" fill="#475569">Guide Slot</text>

    <rect x="1220" y="200" width="500" height="250" rx="22" fill="#f8fafc" stroke="#cbd5e1" stroke-width="2"/>
    <text x="1255" y="260" font-size="28" font-weight="800" fill="#0f172a">3. Public Guide Grid</text>
    <rect x="1255" y="305" width="120" height="60" rx="14" fill="#ffffff" stroke="#cbd5e1" stroke-width="2"/>
    <text x="1280" y="342" font-size="16" fill="#475569">Airport</text>
    <rect x="1400" y="305" width="120" height="60" rx="14" fill="#ffffff" stroke="#cbd5e1" stroke-width="2"/>
    <text x="1425" y="342" font-size="16" fill="#475569">Stadium</text>
    <rect x="1545" y="305" width="120" height="60" rx="14" fill="#ffffff" stroke="#cbd5e1" stroke-width="2"/>
    <text x="1574" y="342" font-size="16" fill="#475569">Teams</text>

    <rect x="80" y="520" width="500" height="250" rx="22" fill="#f8fafc" stroke="#cbd5e1" stroke-width="2"/>
    <text x="115" y="580" font-size="28" font-weight="800" fill="#0f172a">4. Fan Hub Module</text>
    <rect x="115" y="625" width="400" height="70" rx="14" fill="#fef3c7" stroke="#f59e0b" stroke-width="2"/>
    <text x="145" y="668" font-size="18" fill="#475569">Hub Sponsor Area</text>

    <rect x="650" y="520" width="500" height="250" rx="22" fill="#f8fafc" stroke="#cbd5e1" stroke-width="2"/>
    <text x="685" y="580" font-size="28" font-weight="800" fill="#0f172a">5. Route + Area Guide</text>
    <rect x="685" y="625" width="190" height="70" rx="14" fill="#ffffff" stroke="#cbd5e1" stroke-width="2"/>
    <text x="723" y="668" font-size="18" fill="#475569">Route Info</text>
    <rect x="900" y="625" width="190" height="70" rx="14" fill="#fef3c7" stroke="#f59e0b" stroke-width="2"/>
    <text x="930" y="668" font-size="18" fill="#475569">Area Slot</text>

    <rect x="1220" y="520" width="500" height="250" rx="22" fill="#f8fafc" stroke="#cbd5e1" stroke-width="2"/>
    <text x="1255" y="580" font-size="28" font-weight="800" fill="#0f172a">6. Food + Watch Guide</text>
    <rect x="1255" y="625" width="190" height="70" rx="14" fill="#fef3c7" stroke="#f59e0b" stroke-width="2"/>
    <text x="1285" y="668" font-size="18" fill="#475569">Food Card</text>
    <rect x="1470" y="625" width="190" height="70" rx="14" fill="#ffffff" stroke="#cbd5e1" stroke-width="2"/>
    <text x="1498" y="668" font-size="18" fill="#475569">Watch Card</text>

    <rect x="80" y="840" width="500" height="250" rx="22" fill="#f8fafc" stroke="#cbd5e1" stroke-width="2"/>
    <text x="115" y="900" font-size="28" font-weight="800" fill="#0f172a">7. Partner Page</text>
    <text x="115" y="955" font-size="18" fill="#475569">Inventory, audiences, inquiry fields</text>

    <rect x="650" y="840" width="500" height="250" rx="22" fill="#f8fafc" stroke="#cbd5e1" stroke-width="2"/>
    <text x="685" y="900" font-size="28" font-weight="800" fill="#0f172a">8. Coordinator Page</text>
    <text x="685" y="955" font-size="18" fill="#475569">Group planning and quote-ready intake</text>

    <rect x="1220" y="840" width="500" height="250" rx="22" fill="#f8fafc" stroke="#cbd5e1" stroke-width="2"/>
    <text x="1255" y="900" font-size="28" font-weight="800" fill="#0f172a">9. Mobile Stack</text>
    <rect x="1410" y="930" width="150" height="90" rx="16" fill="#0f172a" stroke="#334155" stroke-width="2"/>
    <text x="1430" y="982" font-size="18" fill="#cbd5e1">Mobile</text>

    <rect x="80" y="1160" width="1640" height="280" rx="22" fill="#f8fafc" stroke="#cbd5e1" stroke-width="2"/>
    <text x="115" y="1220" font-size="28" font-weight="800" fill="#0f172a">10. Internal Inventory Control</text>
    <text x="115" y="1275" font-size="18" fill="#475569">Placement status · date range · disclosure status · review status · location controls</text>
    <rect x="115" y="1320" width="310" height="54" rx="14" fill="#ecfdf5" stroke="#86efac" stroke-width="2"/>
    <text x="145" y="1354" font-size="18" fill="#047857">Ready for review</text>

    <rect x="80" y="1510" width="1640" height="260" rx="22" fill="#0f172a" stroke="#334155" stroke-width="2"/>
    <text x="115" y="1570" font-size="28" font-weight="800" fill="#ffffff">Next Determination</text>
    <text x="115" y="1625" font-size="18" fill="#cbd5e1">Review the mockup package before opening any frontend implementation lane.</text>
    <text x="115" y="1670" font-size="18" fill="#cbd5e1">Production deployment and final QR activation require separate approval.</text>
  </g>
</svg>
