<svg xmlns="http://www.w3.org/2000/svg" viewBox="0 0 800 300" role="img" aria-label="Professional concierge operator command visual">
<defs><linearGradient id="bg" x1="0" x2="1" y1="0" y2="1"><stop stop-color="#020b13"/><stop offset="1" stop-color="#0a2d49"/></linearGradient><linearGradient id="gold" x1="0" x2="1"><stop stop-color="#d8a64b"/><stop offset="1" stop-color="#f0c86b"/></linearGradient></defs>
<rect width="800" height="300" fill="url(#bg)"/><rect x="64" y="58" width="290" height="184" rx="18" fill="#061b2d" stroke="#d8a64b" stroke-width="3" opacity=".95"/><path d="M106 195 H312" stroke="#7ab1cd" stroke-width="3" opacity=".55"/><path d="M144 168 C150 108 204 86 246 118 C268 135 278 158 282 168 Z" fill="none" stroke="url(#gold)" stroke-width="7" stroke-linecap="round"/><path d="M128 172 H298" stroke="#f0c86b" stroke-width="8" stroke-linecap="round"/><circle cx="213" cy="91" r="11" fill="#f0c86b"/>
<g transform="translate(430 70)"><circle cx="74" cy="42" r="30" fill="#0b3353" stroke="#d8a64b" stroke-width="3"/><path d="M34 126 C42 82 106 82 116 126" fill="#061b2d" stroke="#d8a64b" stroke-width="3"/><circle cx="180" cy="56" r="26" fill="#0b3353" stroke="#7ab1cd" stroke-width="3"/><path d="M145 132 C153 96 204 96 214 132" fill="#061b2d" stroke="#7ab1cd" stroke-width="3"/><path d="M92 40 H130 C156 40 165 53 166 78" fill="none" stroke="#f0c86b" stroke-width="4" stroke-linecap="round"/><circle cx="166" cy="81" r="5" fill="#f0c86b"/></g>
<path d="M366 148 C420 118 454 156 510 124 S604 100 672 142" fill="none" stroke="#f0c86b" stroke-width="3" opacity=".45"/>
</svg>
