<svg xmlns="http://www.w3.org/2000/svg" viewBox="0 0 800 300" role="img" aria-label="Premium driver command transportation visual">
<defs><linearGradient id="bg" x1="0" x2="1" y1="0" y2="1"><stop stop-color="#020b13"/><stop offset=".55" stop-color="#09243a"/><stop offset="1" stop-color="#020b13"/></linearGradient><linearGradient id="gold" x1="0" x2="1"><stop stop-color="#9f722d"/><stop offset=".5" stop-color="#f0c86b"/><stop offset="1" stop-color="#9f722d"/></linearGradient></defs>
<rect width="800" height="300" fill="url(#bg)"/><path d="M0 220 C180 178 305 198 450 162 S690 112 800 126" fill="none" stroke="#d8a64b" stroke-width="5" opacity=".45"/>
<g transform="translate(128,118)"><path d="M34 88 C70 37 122 26 214 26 H348 C421 26 473 48 520 92 L552 99 C571 104 584 121 588 146 L14 146 C14 120 20 99 34 88 Z" fill="#01060b" stroke="url(#gold)" stroke-width="4"/><path d="M142 44 H340 C390 44 430 61 469 94 H88 C100 67 119 51 142 44 Z" fill="#0b3353" stroke="#7ab1cd" stroke-width="2" opacity=".86"/><circle cx="144" cy="148" r="36" fill="#020b13" stroke="#d8a64b" stroke-width="6"/><circle cx="458" cy="148" r="36" fill="#020b13" stroke="#d8a64b" stroke-width="6"/><rect x="265" y="100" width="52" height="9" rx="4" fill="#f0c86b" opacity=".65"/></g>
<g opacity=".46"><rect x="616" y="44" width="34" height="70" fill="#0d3a5c"/><rect x="662" y="28" width="45" height="92" fill="#0d3a5c"/><rect x="724" y="58" width="30" height="66" fill="#0d3a5c"/></g>
<circle cx="676" cy="52" r="5" fill="#f0c86b"/><circle cx="724" cy="85" r="5" fill="#f0c86b"/><path d="M676 52 L724 85" stroke="#f0c86b" stroke-width="2" opacity=".65"/>
</svg>
