<svg xmlns="http://www.w3.org/2000/svg" viewBox="120 0 180 190" role="img" aria-labelledby="title desc"><title id="title">DFW Matchday Concierge</title><desc id="desc">Approved winged shield DFW mark, cropped to fit the footer logo placement.</desc><defs><linearGradient id="silver" x1="0" x2="1" y1="0" y2="1"><stop offset="0" stop-color="#ffffff"/><stop offset="0.35" stop-color="#cfcfcf"/><stop offset="0.68" stop-color="#7f7f7f"/><stop offset="1" stop-color="#f4f4f4"/></linearGradient><filter id="soft" x="-20%" y="-20%" width="140%" height="140%"><feDropShadow dx="0" dy="1" stdDeviation="1.2" flood-color="#ffffff" flood-opacity="0.18"/></filter></defs><rect width="420" height="190" fill="none"/><g fill="none" stroke="url(#silver)" stroke-width="5" stroke-linecap="round" stroke-linejoin="round" filter="url(#soft)"><path d="M170 42 H250 Q266 45 274 58 V105 Q274 145 210 171 Q146 145 146 105 V58 Q154 45 170 42Z"/><path d="M160 56 H76 L88 70 H146"/><path d="M152 82 H92 L104 95 H146"/><path d="M148 108 H112 L124 120 H146"/><path d="M260 56 H344 L332 70 H274"/><path d="M268 82 H328 L316 95 H274"/><path d="M272 108 H308 L296 120 H274"/><path d="M188 31 L196 16 L207 29 L220 13 L232 29 L244 16 L252 31"/><path d="M187 36 H253"/></g><text x="210" y="112" text-anchor="middle" font-family="Georgia, 'Times New Roman', serif" font-size="54" fill="url(#silver)" letter-spacing="-2">DFW</text></svg>
