<svg xmlns="http://www.w3.org/2000/svg" viewBox="0 0 2400 600" role="img" aria-label="Fort Worth skyline, stadium, Dallas skyline, and crowd with international flags">
<defs><linearGradient id="sky" x1="0" x2="1" y1="0" y2="1"><stop stop-color="#020912"/><stop offset=".5" stop-color="#08243b"/><stop offset="1" stop-color="#02070d"/></linearGradient><linearGradient id="gold" x1="0" x2="1"><stop stop-color="#8c6528"/><stop offset=".5" stop-color="#f0c86b"/><stop offset="1" stop-color="#8c6528"/></linearGradient><radialGradient id="halo" cx="48%" cy="52%" r="58%"><stop offset="0" stop-color="#d8a64b" stop-opacity=".24"/><stop offset=".55" stop-color="#08243b" stop-opacity=".25"/><stop offset="1" stop-color="#020912" stop-opacity="0"/></radialGradient></defs>
<rect width="2400" height="600" fill="url(#sky)"/><rect width="2400" height="600" fill="url(#halo)"/>
<g opacity=".95"><rect x="70" y="274" width="54" height="146" fill="#0b3353"/><rect x="144" y="225" width="46" height="195" fill="#0f426b"/><rect x="214" y="304" width="76" height="116" fill="#092b47"/><rect x="318" y="194" width="54" height="226" fill="#123f67"/><rect x="400" y="268" width="94" height="152" fill="#0b314f"/><rect x="530" y="224" width="68" height="196" fill="#0c385d"/><path d="M0 421 C200 390 410 402 690 384 L690 456 L0 456 Z" fill="#01060b" opacity=".8"/><path d="M22 421 L640 421" stroke="url(#gold)" stroke-width="3" opacity=".78"/></g>
<g transform="translate(650 145)"><ellipse cx="440" cy="262" rx="430" ry="94" fill="#061b2d" opacity=".98"/><ellipse cx="440" cy="246" rx="388" ry="80" fill="none" stroke="#d8a64b" stroke-width="7" opacity=".8"/><path d="M70 242 C175 115 690 111 812 242" fill="none" stroke="#f0c86b" stroke-width="8" opacity=".58"/><path d="M95 257 C210 178 670 174 790 257" fill="none" stroke="#7ab1cd" stroke-width="3" opacity=".55"/><rect x="145" y="286" width="585" height="30" fill="#01060b" opacity=".72"/></g>
<g><rect x="1320" y="210" width="60" height="210" fill="#0c395b"/><rect x="1395" y="245" width="48" height="175" fill="#143f66"/><rect x="1468" y="180" width="70" height="240" fill="#0e4d75"/><rect x="1560" y="275" width="40" height="145" fill="#0c2e4d"/><polygon points="1664,72 1681,130 1647,130" fill="#d8a64b" opacity=".9"/><rect x="1620" y="130" width="88" height="290" fill="#15527f"/><rect x="1730" y="235" width="58" height="185" fill="#0b3658"/><path d="M1220 420 C1430 388 1640 395 1810 372 L1810 456 L1220 456 Z" fill="#01060b" opacity=".8"/><path d="M1230 421 L1800 421" stroke="url(#gold)" stroke-width="3" opacity=".78"/></g>
<g id="crowd"><g stroke="#d8a64b" stroke-width="4" opacity=".82"><line x1="1900" y1="206" x2="1900" y2="492"/><line x1="1990" y1="164" x2="1990" y2="492"/><line x1="2080" y1="196" x2="2080" y2="492"/><line x1="2165" y1="150" x2="2165" y2="492"/><line x1="2250" y1="191" x2="2250" y2="492"/><line x1="1945" y1="291" x2="1945" y2="505"/><line x1="2040" y1="272" x2="2040" y2="505"/><line x1="2135" y1="304" x2="2135" y2="505"/><line x1="2232" y1="281" x2="2232" y2="505"/></g>
<g stroke="rgba(255,255,255,.7)" stroke-width="2"><g><rect x="1900" y="160" width="72" height="46" fill="#fff"/><rect x="1900" y="160" width="72" height="15" fill="#ae1c28"/><rect x="1900" y="191" width="72" height="15" fill="#21468b"/></g><g><rect x="1990" y="118" width="72" height="46" fill="#fff"/><circle cx="2026" cy="141" r="12" fill="#bc002d"/></g><g><rect x="2080" y="150" width="72" height="46" fill="#fff"/><rect x="2111" y="150" width="10" height="46" fill="#ce1124"/><rect x="2080" y="168" width="72" height="10" fill="#ce1124"/></g><g><rect x="2165" y="104" width="72" height="46" fill="#fff"/><rect x="2165" y="104" width="72" height="15" fill="#f00"/><rect x="2165" y="135" width="72" height="15" fill="#171796"/><rect x="2196" y="120" width="8" height="8" fill="#e11b2f"/><rect x="2204" y="128" width="8" height="8" fill="#e11b2f"/></g><g><rect x="2250" y="145" width="72" height="46" fill="#fff"/><rect x="2250" y="145" width="72" height="15" fill="#74acdf"/><rect x="2250" y="176" width="72" height="15" fill="#74acdf"/><circle cx="2286" cy="168" r="5" fill="#f6b40e"/></g><g><rect x="1945" y="245" width="72" height="46" fill="#fff"/><rect x="1945" y="245" width="72" height="15" fill="#ed2939"/><rect x="1945" y="276" width="72" height="15" fill="#ed2939"/></g><g><rect x="2040" y="226" width="72" height="46" fill="#006aa7"/><rect x="2060" y="226" width="10" height="46" fill="#fecc00"/><rect x="2040" y="244" width="72" height="9" fill="#fecc00"/></g><g><rect x="2135" y="258" width="72" height="46" fill="#fff"/><rect x="2135" y="258" width="72" height="15" fill="#000"/><rect x="2135" y="289" width="72" height="15" fill="#007a3d"/><polygon points="2135,258 2166,281 2135,304" fill="#ce1126"/></g><g><rect x="2232" y="235" width="72" height="46" fill="#fff"/><rect x="2232" y="235" width="72" height="4" fill="#b22234"/><rect x="2232" y="243" width="72" height="4" fill="#b22234"/><rect x="2232" y="251" width="72" height="4" fill="#b22234"/><rect x="2232" y="259" width="72" height="4" fill="#b22234"/><rect x="2232" y="267" width="72" height="4" fill="#b22234"/><rect x="2232" y="275" width="72" height="4" fill="#b22234"/><rect x="2232" y="235" width="30" height="25" fill="#3c3b6e"/></g></g>
<g fill="#01060b" opacity=".97"><circle cx="1860" cy="492" r="12"/><rect x="1849" y="502" width="22" height="40" rx="10"/><circle cx="1892" cy="506" r="10"/><rect x="1882" y="515" width="20" height="38" rx="10"/><circle cx="1948" cy="500" r="13"/><rect x="1935" y="512" width="26" height="43" rx="13"/><circle cx="2010" cy="490" r="12"/><rect x="1998" y="501" width="24" height="42" rx="12"/><circle cx="2078" cy="505" r="11"/><rect x="2067" y="516" width="22" height="36" rx="11"/><circle cx="2140" cy="494" r="13"/><rect x="2127" y="506" width="26" height="45" rx="13"/><circle cx="2205" cy="504" r="11"/><rect x="2194" y="515" width="22" height="38" rx="11"/><circle cx="2280" cy="496" r="14"/><rect x="2266" y="509" width="28" height="45" rx="14"/></g></g>
<rect x="820" y="0" width="760" height="600" fill="#020912" opacity=".34"/><rect width="2400" height="600" fill="#000" opacity=".16"/>
</svg>
