<svg xmlns="http://www.w3.org/2000/svg" width="1440" height="1000" viewBox="0 0 1440 1000"><title>Homepage desktop operating lane cards mockup v1.0.0</title><rect width="1440" height="1000" fill="#07111f"/><text x="70" y="85" fill="#fff" font-family="Arial" font-size="40" font-weight="800">Homepage Desktop Operating Lane Cards</text><rect x="70" y="150" width="1300" height="720" rx="28" fill="#f8fafc"/><text x="110" y="220" fill="#111827" font-family="Arial" font-size="32" font-weight="800">Seven Controlled Operating Paths</text><g font-family="Arial" font-size="20" fill="#111827"><rect x="110" y="280" width="360" height="120" rx="18" fill="#fff" stroke="#cbd5e1"/><text x="140" y="350">VIP Guest Concierge</text><rect x="500" y="280" width="360" height="120" rx="18" fill="#fff" stroke="#cbd5e1"/><text x="530" y="350">Team Family Support</text><rect x="890" y="280" width="360" height="120" rx="18" fill="#fff" stroke="#cbd5e1"/><text x="920" y="350">Media / Corporate</text><rect x="110" y="430" width="360" height="120" rx="18" fill="#fff" stroke="#cbd5e1"/><text x="140" y="500">Team Fan Hubs</text><rect x="500" y="430" width="360" height="120" rx="18" fill="#fff" stroke="#cbd5e1"/><text x="530" y="500">Driver Onboarding</text><rect x="890" y="430" width="360" height="120" rx="18" fill="#fff" stroke="#cbd5e1"/><text x="920" y="500">Concierge Onboarding</text><rect x="110" y="580" width="1140" height="120" rx="18" fill="#fff7ed" stroke="#fdba74"/><text x="140" y="650">Fulfillment Layer: confirmed scope required</text></g></svg>