<svg xmlns="http://www.w3.org/2000/svg" viewBox="0 0 1000 575" role="img" aria-label="DFW matchday route map showing airport, Dallas, Fort Worth, Arlington, stadium, Stockyards, and fan zones">
<defs><linearGradient id="bg" x1="0" x2="1" y1="0" y2="1"><stop stop-color="#041523"/><stop offset="1" stop-color="#09243b"/></linearGradient><filter id="glow"><feGaussianBlur stdDeviation="3" result="b"/><feMerge><feMergeNode in="b"/><feMergeNode in="SourceGraphic"/></feMerge></filter></defs>
<rect width="1000" height="575" rx="18" fill="url(#bg)"/><g opacity=".18" stroke="#7ab1cd" stroke-width="1"><path d="M50 0 V575"/><path d="M0 35 H1000"/><path d="M130 0 V575"/><path d="M0 93 H1000"/><path d="M210 0 V575"/><path d="M0 151 H1000"/><path d="M290 0 V575"/><path d="M0 209 H1000"/><path d="M370 0 V575"/><path d="M0 267 H1000"/><path d="M450 0 V575"/><path d="M0 325 H1000"/><path d="M530 0 V575"/><path d="M0 383 H1000"/><path d="M610 0 V575"/><path d="M0 441 H1000"/><path d="M690 0 V575"/><path d="M0 499 H1000"/><path d="M770 0 V575"/><path d="M0 557 H1000"/><path d="M850 0 V575"/><path d="M930 0 V575"/></g>
<path d="M210 105 C330 160 390 240 493 315 C585 382 700 352 820 255" fill="none" stroke="#d8a64b" stroke-width="10" opacity=".42" stroke-linecap="round"/>
<path d="M160 380 C284 330 376 325 493 315 C620 306 760 360 880 430" fill="none" stroke="#f0c86b" stroke-width="7" opacity=".55" stroke-linecap="round"/>
<path d="M320 448 C378 392 426 352 493 315 C540 290 586 252 642 178" fill="none" stroke="#7ab1cd" stroke-width="6" opacity=".5" stroke-linecap="round"/>
<g font-family="Arial, Helvetica, sans-serif" font-size="26" font-weight="800" fill="#f4f7f2" text-anchor="middle"><g transform="translate(210 105)"><circle r="20" fill="#020b13" stroke="#f0c86b" stroke-width="6" filter="url(#glow)"/><text y="-32">DFW Airport</text></g><g transform="translate(642 178)"><circle r="17" fill="#020b13" stroke="#7ab1cd" stroke-width="5"/><text y="-30">Love Field</text></g><g transform="translate(160 380)"><circle r="19" fill="#020b13" stroke="#d8a64b" stroke-width="5"/><text y="44">Fort Worth</text></g><g transform="translate(493 315)"><circle r="24" fill="#020b13" stroke="#f0c86b" stroke-width="7" filter="url(#glow)"/><text y="-38">Arlington</text></g><g transform="translate(820 255)"><circle r="19" fill="#020b13" stroke="#d8a64b" stroke-width="5"/><text y="-34">Dallas</text></g><g transform="translate(320 448)"><circle r="15" fill="#020b13" stroke="#7ab1cd" stroke-width="5"/><text y="42">Stockyards</text></g><g transform="translate(540 378)"><rect x="-88" y="-23" width="176" height="46" rx="23" fill="#020b13" stroke="#f0c86b" stroke-width="4"/><text y="9" fill="#f0c86b">Stadium Zone</text></g><g transform="translate(880 430)"><circle r="17" fill="#020b13" stroke="#d8a64b" stroke-width="5"/><text y="42">Fan Experience Zones</text></g></g>
<g opacity=".3" fill="#d8a64b"><circle cx="55" cy="70" r="3"/><circle cx="120" cy="170" r="2"/><circle cx="910" cy="90" r="3"/><circle cx="760" cy="500" r="2"/></g>
</svg>
